<svg id="图层_1" data-name="图层 1" xmlns="http://www.w3.org/2000/svg" xmlns:xlink="http://www.w3.org/1999/xlink" viewBox="0 0 200.03 52"><defs><style>.cls-1{font-size:22px;fill:#272c3d;font-family:PingFangSC-Semibold-GBpc-EUC-H, PingFang SC;font-weight:700;}.cls-2{fill-rule:evenodd;fill:url(#未命名的渐变_11);}.cls-3{fill:#292e3c;}</style><linearGradient id="未命名的渐变_11" x1="38.14" y1="42.98" x2="12.39" y2="9.23" gradientUnits="userSpaceOnUse"><stop offset="0" stop-color="#ff8802"/><stop offset="1" stop-color="#ffa539"/></linearGradient></defs><title>123画板 17</title><text class="cls-1" transform="translate(183 35)">X</text><path class="cls-2" d="M25.35,0a2.83,2.83,0,0,1,1.59.53L48.41,15.87a.66.66,0,0,1,0,1.06l-9.81,7.36a2.06,2.06,0,0,1-2.5,0L26.93,17a2.68,2.68,0,0,0-3.36,0l-9,7.16a2,2,0,0,1-2.51,0l-9.16-7a.66.66,0,0,1,0-1.05L23.58.57A2.82,2.82,0,0,1,25.23,0ZM49.61,18.2h.08a.38.38,0,0,1,.31.38V32.66a3.35,3.35,0,0,1-1.36,2.5L26.71,51.43l-.17.12a2.85,2.85,0,0,1-3.25-.12L1.37,35.16,1.2,35A3.37,3.37,0,0,1,0,32.45V18.51a.37.37,0,0,1,.6-.23L23.37,35.17l.16.11a2.73,2.73,0,0,0,3.1-.11L49.39,18.28A.33.33,0,0,1,49.61,18.2Z"/><path class="cls-3" d="M101.82,17.15a10.3,10.3,0,0,0-4.22-.69H94q-4.44,0-5.74,2a7,7,0,0,0-.79,3.62v8.7q0,4.47,3.62,5.56a13,13,0,0,0,3.78.48h6.62a2,2,0,0,0,2-2V33a1,1,0,0,0-1-1H94.24c-.37-.06-.58-.24-.6-.57V29.27h7.48a3,3,0,0,0,3-3V22.1Q104.12,18.27,101.82,17.15ZM98,25.24H93.64V21.66a.61.61,0,0,1,.6-.57h3.18c.38.06.58.25.61.57Z"/><path class="cls-3" d="M76.58,11.2a19.57,19.57,0,0,0-2.22-.12H64a2,2,0,0,0-2,2V36.85l12.36.2q7.1.12,7.92-5a9.29,9.29,0,0,0,.13-1.61V17.72Q82.41,11.89,76.58,11.2Zm-.7,20.14a.61.61,0,0,1-.61.56H68.44V16.23h6.83c.38.06.58.24.61.57Z"/><path class="cls-3" d="M119.2,10l-2.67,0c-3.25,0-5.3.85-6.14,2.62a7.46,7.46,0,0,0-.61,3.22v2h-2.17v4.43h2.17V36.59a1,1,0,0,0,1,1H114a2,2,0,0,0,2-2V22.28h4.79V17.85H116V15.4a.62.62,0,0,1,.61-.57l4,0h0a1,1,0,0,0,1-1V12.46A2.44,2.44,0,0,0,119.2,10Z"/><rect class="cls-3" x="125.64" y="10" width="6.18" height="4.83" rx="1" ry="1"/><path class="cls-3" d="M152.55,17.37a12.11,12.11,0,0,0-2.53-.14h-5.43V11a1,1,0,0,0-1-1h-4.23a1,1,0,0,0-1,1V35.23a2,2,0,0,0,2,2l8.71.2q4.65.12,5.92-2.22a7.28,7.28,0,0,0,.6-3.22V22.08Q155.55,18.21,152.55,17.37ZM149.46,32a.6.6,0,0,1-.61.56h-4.26V22.24a.61.61,0,0,1,.61-.56h3.65a.6.6,0,0,1,.61.56Z"/><rect class="cls-3" x="125.64" y="17.33" width="6.18" height="19.73" rx="1" ry="1"/><path class="cls-3" d="M174.35,16.94a12.81,12.81,0,0,0-3.79-.48H168c-3.75,0-6,1.05-6.92,3.14a7.86,7.86,0,0,0-.48,2.9V31q0,4.47,3.61,5.56A13,13,0,0,0,168,37h2.52q5.61,0,6.92-3.14A7.86,7.86,0,0,0,178,31V22.5C178,19.52,176.75,17.67,174.35,16.94ZM171.73,31.6a.61.61,0,0,1-.6.57h-3.66c-.38-.06-.58-.24-.61-.57V21.86a.62.62,0,0,1,.61-.57h3.66c.37.06.58.25.6.57Z"/><path class="cls-3" d="M193.94,26.19l5.37-7.7A.33.33,0,0,0,199,18h-4.83a1.71,1.71,0,0,0-1.42.76l-2.28,3.42a.24.24,0,0,1-.41,0l-2.28-3.42A1.72,1.72,0,0,0,186.4,18h-4.82a.33.33,0,0,0-.28.52l5.34,7.7a1.2,1.2,0,0,1,0,1.38L181,35.8a.33.33,0,0,0,.28.52h4.82a1.72,1.72,0,0,0,1.42-.76l2.63-4a.24.24,0,0,1,.41,0l2.63,4a1.72,1.72,0,0,0,1.42.76h4.83a.33.33,0,0,0,.27-.52l-5.72-8.22A1.22,1.22,0,0,1,193.94,26.19Z"/></svg>