<svg id="图层_1" data-name="图层 1" xmlns="http://www.w3.org/2000/svg" viewBox="0 0 183.75 140"><defs><style>.cls-1{fill:#fff;}</style></defs><title>icon画板 3</title><path class="cls-1" d="M155.79,11.82a.45.45,0,0,0-.24-.21A151.24,151.24,0,0,0,118.15,0a.56.56,0,0,0-.6.28,105.63,105.63,0,0,0-4.66,9.57,139.54,139.54,0,0,0-42,0A94.38,94.38,0,0,0,66.16.29.6.6,0,0,0,65.55,0a151,151,0,0,0-37.4,11.6.45.45,0,0,0-.24.21C4.08,47.39-2.44,82.09.76,116.36a.61.61,0,0,0,.24.43A152.24,152.24,0,0,0,46.88,140a.58.58,0,0,0,.65-.21,108.44,108.44,0,0,0,9.38-15.26.58.58,0,0,0-.25-.78l-.07,0a100,100,0,0,1-14.33-6.83.59.59,0,0,1-.21-.8.5.5,0,0,1,.15-.17c1-.73,1.92-1.47,2.85-2.23a.56.56,0,0,1,.59-.08c30.07,13.72,62.63,13.72,92.35,0a.55.55,0,0,1,.6.07c.93.77,1.88,1.51,2.85,2.24a.58.58,0,0,1,.12.82.61.61,0,0,1-.17.15,93.17,93.17,0,0,1-14.34,6.82.6.6,0,0,0-.34.76l0,.06a120.89,120.89,0,0,0,9.38,15.25.56.56,0,0,0,.64.22,151.63,151.63,0,0,0,46-23.18.59.59,0,0,0,.24-.42C186.79,76.75,176.54,42.33,155.79,11.82ZM61.4,95.49c-9,0-16.51-8.3-16.51-18.51S52.2,58.47,61.4,58.47,78.06,66.85,77.92,77,70.6,95.49,61.4,95.49Zm61.06,0c-9,0-16.51-8.3-16.51-18.51s7.31-18.51,16.51-18.51S139.12,66.85,139,77C139,87.19,131.73,95.49,122.46,95.49Z"/></svg>