<?xml version="1.0" encoding="utf-8"?>
<!-- Generator: Adobe Illustrator 24.1.0, SVG Export Plug-In . SVG Version: 6.00 Build 0)  -->
<svg version="1.1" id="图层_1" xmlns="http://www.w3.org/2000/svg" xmlns:xlink="http://www.w3.org/1999/xlink" x="0px" y="0px"
	 viewBox="0 0 17.5 17.5" style="enable-background:new 0 0 17.5 17.5;" xml:space="preserve">
<style type="text/css">
	.st0{fill:#999999;}
</style>
<path class="st0" d="M8.3,16.6c-2.2,0-4.3-0.9-5.9-2.4l0,0c-3.2-3.2-3.2-8.5,0-11.7s8.5-3.2,11.7,0s3.2,8.5,0,11.7
	C12.6,15.7,10.5,16.6,8.3,16.6z M8.3,2C4.8,2,2,4.8,2,8.3c0,1.7,0.7,3.3,1.8,4.5l0,0c2.5,2.5,6.5,2.5,8.9,0s2.5-6.5,0-8.9
	C11.6,2.7,10,2,8.3,2z"/>
<path class="st0" d="M16.5,17.5c-0.3,0-0.5-0.1-0.7-0.3l-3-3c-0.4-0.4-0.3-1.1,0.1-1.4c0.4-0.3,0.9-0.3,1.3,0l3,3
	c0.4,0.4,0.4,1,0,1.4C17,17.3,16.7,17.4,16.5,17.5z"/>
</svg>
