<?xml version="1.0" standalone="no"?><!DOCTYPE svg PUBLIC "-//W3C//DTD SVG 1.1//EN" "http://www.w3.org/Graphics/SVG/1.1/DTD/svg11.dtd"><svg t="1655108170742" class="icon" viewBox="0 0 1024 1024" version="1.1" xmlns="http://www.w3.org/2000/svg" p-id="15612" xmlns:xlink="http://www.w3.org/1999/xlink" width="200" height="200"><defs><style type="text/css">@font-face { font-family: feedback-iconfont; src: url("//at.alicdn.com/t/font_1031158_u69w8yhxdu.woff2?t=1630033759944") format("woff2"), url("//at.alicdn.com/t/font_1031158_u69w8yhxdu.woff?t=1630033759944") format("woff"), url("//at.alicdn.com/t/font_1031158_u69w8yhxdu.ttf?t=1630033759944") format("truetype"); }
</style></defs><path d="M512 512m-512 0a512 512 0 1 0 1024 0 512 512 0 1 0-1024 0Z" fill="#3650A2" p-id="15613"></path><path d="M512 191.779202a38.406309 38.406309 0 0 1 34.570724 21.650862l153.625235 316.78896 3.482306 7.166486h-85.341745l-24.830359-51.023361H430.544308l-24.83036 51.225234H320.372203l3.482307-7.166486 153.625234-316.78896a38.406309 38.406309 0 0 1 34.520256-21.852735z m-50.468211 230.387383h100.936422l-50.468211-103.964515z m165.5862 223.97792h76.812617a192.082011 192.082011 0 0 1-383.962149 0h76.913554a113.452538 113.452538 0 0 0 76.71168 102.4v-153.372893a38.406309 38.406309 0 1 1 76.762149 0v153.574766a113.452538 113.452538 0 0 0 76.812617-102.4z" fill="#FFFFFF" p-id="15614"></path></svg>