<svg id="图层_1" data-name="图层 1" xmlns="http://www.w3.org/2000/svg" viewBox="0 0 204 204"><defs><style>.cls-1{fill:#fff;}.cls-2{fill:#d3d3d3;}.cls-3{fill:#3ba83b;}</style></defs><title>icon画板 2</title><circle class="cls-1" cx="102" cy="102" r="101"/><path class="cls-2" d="M102,204A102,102,0,1,1,204,102,102.12,102.12,0,0,1,102,204ZM102,2A100,100,0,1,0,202,102,100.11,100.11,0,0,0,102,2Z"/><path class="cls-3" d="M48.23,130.49c4.55-42.2,18.65-61.12,37.42-68.14,23.5-8.81,41.49-5.06,65.5-13.33,5-1.91,9.6-3,11-2.08s.79,7.69.7,8.93c-1.93,28.17-10.08,56.75-39.73,71.88-35.13,18.61-58.66-12.11-78,29a.81.81,0,0,1-.7.5l-2.64.11A1,1,0,0,1,41,156a129.31,129.31,0,0,1,31.77-48.41c12.58-11.94,27.83-21.43,45.45-29.22,1.42-.63.71-3.17-.77-2.7-13.57,4.34-25.78,9.78-37,18-11.7,8.59-22.32,20.25-32.23,36.85Z"/></svg>