<?xml version="1.0" standalone="no"?><!DOCTYPE svg PUBLIC "-//W3C//DTD SVG 1.1//EN" "http://www.w3.org/Graphics/SVG/1.1/DTD/svg11.dtd"><svg t="1655108095819" class="icon" viewBox="0 0 1024 1024" version="1.1" xmlns="http://www.w3.org/2000/svg" p-id="15463" xmlns:xlink="http://www.w3.org/1999/xlink" width="200" height="200"><defs><style type="text/css">@font-face { font-family: feedback-iconfont; src: url("//at.alicdn.com/t/font_1031158_u69w8yhxdu.woff2?t=1630033759944") format("woff2"), url("//at.alicdn.com/t/font_1031158_u69w8yhxdu.woff?t=1630033759944") format("woff"), url("//at.alicdn.com/t/font_1031158_u69w8yhxdu.ttf?t=1630033759944") format("truetype"); }
</style></defs><path d="M71.68 71.68m440.32 0l0 0q440.32 0 440.32 440.32l0 0q0 440.32-440.32 440.32l0 0q-440.32 0-440.32-440.32l0 0q0-440.32 440.32-440.32Z" fill="#FFFFFF" p-id="15464"></path><path d="M512 0A512 512 0 1 1 0 512 512 512 0 0 1 512 0z m54.6816 209.4592a198.9632 198.9632 0 0 0-58.5216 8.9088 265.5232 265.5232 0 0 0-56.32 24.576 288.9216 288.9216 0 0 0-89.7536 82.4832 218.4192 218.4192 0 0 0-26.624 51.2 157.9008 157.9008 0 0 0-9.6256 53.5552 155.8016 155.8016 0 0 0 9.0112 55.04 163.84 163.84 0 0 0 23.552 43.0592 188.4672 188.4672 0 0 0 33.5872 33.6896q18.8416 14.6432 38.5536 27.3408t38.6048 24.3712a299.1104 299.1104 0 0 1 33.5872 24.0128 115.6096 115.6096 0 0 1 23.7056 26.5728 59.6992 59.6992 0 0 1 9.0112 32.512 53.1968 53.1968 0 0 1-16.7424 41.4208 61.7984 61.7984 0 0 1-43.264 15.36 72.9088 72.9088 0 0 1-21.1968-2.7648 80.5888 80.5888 0 0 1-15.36-6.144 49.7664 49.7664 0 0 1-8.8064-6.6048l-4.1984-3.9936a11.0592 11.0592 0 0 0-9.8816-7.0144 17.6128 17.6128 0 0 0-10.24 4.7104 62.5664 62.5664 0 0 0-10.9568 11.7248 70.912 70.912 0 0 0-8.3456 15.0528 39.3728 39.3728 0 0 0-3.3792 15.36 23.0912 23.0912 0 0 0 4.1984 8.5504 52.1216 52.1216 0 0 0 14.6944 13.6704A111.7184 111.7184 0 0 0 430.08 808.96a151.3984 151.3984 0 0 0 45.312 5.7344 133.12 133.12 0 0 0 50.3808-9.5232 128.9216 128.9216 0 0 0 40.96-25.6 119.1424 119.1424 0 0 0 27.0336-38.2976 113.152 113.152 0 0 0 9.8816-46.592 105.984 105.984 0 0 0-9.0624-44.9536 134.4 134.4 0 0 0-23.9104-35.84 209.92 209.92 0 0 0-33.7408-29.2864q-18.944-13.3632-38.656-25.6c-12.9536-8.2432-25.6-16.5888-38.5536-25.1904a217.088 217.088 0 0 1-33.792-27.7504 126.3616 126.3616 0 0 1-23.9104-33.536 94.1568 94.1568 0 0 1-9.0112-41.7792 113.1008 113.1008 0 0 1 8.192-42.6496 160.9728 160.9728 0 0 1 21.6064-38.0416A197.4272 197.4272 0 0 1 453.7856 317.44a227.6352 227.6352 0 0 1 36.5056-24.9344A203.0592 203.0592 0 0 1 527.872 276.48a116.6336 116.6336 0 0 1 34.56-5.7344c17.1008 0 29.184 3.9424 36.352 11.8784a46.7968 46.7968 0 0 1 10.496 32.3072 81.6128 81.6128 0 0 1-12.8 41.6768 185.4976 185.4976 0 0 1-31.6928 39.2192 190.6176 190.6176 0 0 1-40.0896 29.1328 83.5584 83.5584 0 0 1-39.0144 11.52 42.1888 42.1888 0 0 1-9.6768-1.024 44.288 44.288 0 0 0-6.912-1.1776 5.12 5.12 0 0 0-4.1984 1.3824 10.7008 10.7008 0 0 0-1.4848 6.7584 39.3728 39.3728 0 0 0 3.3792 14.4384 61.44 61.44 0 0 0 9.4208 15.36 52.8896 52.8896 0 0 0 15.36 12.288 41.728 41.728 0 0 0 20.48 5.12 85.4016 85.4016 0 0 0 30.208-6.7072 188.8256 188.8256 0 0 0 35.4304-18.8928 265.728 265.728 0 0 0 35.84-28.5184 245.2992 245.2992 0 0 0 31.2832-35.84 186.2656 186.2656 0 0 0 22.2208-40.96 122.88 122.88 0 0 0 8.3968-44.4416 116.1216 116.1216 0 0 0-7.5776-43.008 94.0544 94.0544 0 0 0-21.4016-32.9216 95.0272 95.0272 0 0 0-33.9456-21.1968 129.024 129.024 0 0 0-45.824-7.68z" fill="#36B3FB" p-id="15465"></path></svg>