<?xml version="1.0" standalone="no"?><!DOCTYPE svg PUBLIC "-//W3C//DTD SVG 1.1//EN" "http://www.w3.org/Graphics/SVG/1.1/DTD/svg11.dtd"><svg t="1657271360341" class="icon" viewBox="0 0 1024 1024" version="1.1" xmlns="http://www.w3.org/2000/svg" p-id="1250" xmlns:xlink="http://www.w3.org/1999/xlink" width="200" height="200"><defs><style type="text/css">@font-face { font-family: feedback-iconfont; src: url("//at.alicdn.com/t/font_1031158_u69w8yhxdu.woff2?t=1630033759944") format("woff2"), url("//at.alicdn.com/t/font_1031158_u69w8yhxdu.woff?t=1630033759944") format("woff"), url("//at.alicdn.com/t/font_1031158_u69w8yhxdu.ttf?t=1630033759944") format("truetype"); }
</style></defs><path d="M950.856 0H73.144A73.144 73.144 0 0 0 0 73.144v877.712A73.144 73.144 0 0 0 73.144 1024h877.712A73.144 73.144 0 0 0 1024 950.856V73.144A73.144 73.144 0 0 0 950.856 0z m-85.467 336.764L462.882 750.69a45.41 45.41 0 0 1-18.214 11.51 46.303 46.303 0 0 1-50.113-9.061L159.87 529.768a46.406 46.406 0 0 1 63.968-67.24l202.443 192.66 372.6-383.124a46.395 46.395 0 0 1 79.654 32.436 45.983 45.983 0 0 1-13.135 32.264z" p-id="1251" fill="#f0f0f0"></path></svg>