<?xml version="1.0" standalone="no"?><!DOCTYPE svg PUBLIC "-//W3C//DTD SVG 1.1//EN" "http://www.w3.org/Graphics/SVG/1.1/DTD/svg11.dtd"><svg t="1657003357493" class="icon" viewBox="0 0 1024 1024" version="1.1" xmlns="http://www.w3.org/2000/svg" p-id="18920" xmlns:xlink="http://www.w3.org/1999/xlink" width="200" height="200"><defs><style type="text/css">@font-face { font-family: feedback-iconfont; src: url("//at.alicdn.com/t/font_1031158_u69w8yhxdu.woff2?t=1630033759944") format("woff2"), url("//at.alicdn.com/t/font_1031158_u69w8yhxdu.woff?t=1630033759944") format("woff"), url("//at.alicdn.com/t/font_1031158_u69w8yhxdu.ttf?t=1630033759944") format("truetype"); }
</style></defs><path d="M741.517241 0H282.482759a282.482759 282.482759 0 0 0-282.482759 282.482759v459.034482a282.482759 282.482759 0 0 0 282.482759 282.482759h459.034482a282.482759 282.482759 0 0 0 282.482759-282.482759V282.482759a282.482759 282.482759 0 0 0-282.482759-282.482759z m20.48 404.656552l-250.350344 251.409655a48.375172 48.375172 0 0 1-35.310345 14.830345 49.081379 49.081379 0 0 1-35.310345-14.830345l-144.066207-143.713104a50.14069 50.14069 0 0 1-14.477241-35.310344A51.2 51.2 0 0 1 332.976552 423.724138a48.022069 48.022069 0 0 1 35.310345 15.536552l105.931034 105.931034 214.686897-215.393103a48.022069 48.022069 0 0 1 35.310344-15.183449 50.846897 50.846897 0 0 1 35.310345 86.863449z" p-id="18921" fill="#d8d8d8"></path></svg>